<?xml version="1.0" encoding="UTF-8"?>
<svg xmlns="http://www.w3.org/2000/svg" xmlns:xlink="http://www.w3.org/1999/xlink" width="512px" height="512px" viewBox="0 0 512 512" version="1.1">
<g id="surface1">
<path style=" stroke:none;fill-rule:nonzero;fill:rgb(89.803922%,42.745098%,12.941177%);fill-opacity:1;" d="M 230.050781 505.3125 C 179.863281 499.523438 124.910156 471.585938 88.335938 433.183594 C 46.285156 388.996094 23.222656 335.867188 17.636719 270.238281 C 15.804688 248.605469 17.839844 220.5625 22.820312 197.097656 C 32.773438 150.871094 55.933594 108.410156 89.765625 74.582031 C 103.980469 60.363281 113.636719 52.542969 128.667969 42.886719 C 164.523438 19.726562 203.03125 7.636719 246.300781 5.90625 C 281.550781 4.589844 312.535156 10.175781 348.292969 24.5 C 377.347656 36.082031 401.015625 52.332031 425.089844 77.324219 C 460.640625 114.101562 482.890625 158.695312 491.527344 210.8125 C 498.734375 253.984375 494.675781 300.820312 480.25 341.351562 C 475.574219 354.355469 462.472656 381.480469 455.257812 392.851562 C 415.136719 456.042969 354.390625 495.558594 282.570312 504.90625 C 269.667969 506.53125 242.84375 506.738281 230.050781 505.3125 Z M 273.832031 472.804688 C 327.773438 467.320312 375.621094 442.023438 409.953125 400.882812 C 428.035156 379.242188 443.777344 351.304688 452.109375 325.910156 C 473.445312 261.199219 464.097656 184.601562 428.34375 131.980469 C 394.714844 82.304688 352.761719 53.761719 295.066406 41.0625 C 281.042969 38.011719 244.472656 37.195312 228.015625 39.535156 C 143.292969 51.929688 76.757812 112.882812 54.914062 198.113281 C 49.128906 220.765625 46.792969 251.753906 49.128906 275.316406 C 54.914062 332.617188 81.636719 386.25 122.167969 421.703125 C 140.550781 437.855469 173.160156 456.449219 196.523438 464.171875 C 220.5 472.09375 249.449219 475.34375 273.832031 472.804688 Z M 273.832031 472.804688 "/>
<path style=" stroke:none;fill-rule:nonzero;fill:rgb(89.803922%,42.745098%,12.941177%);fill-opacity:1;" d="M 164.484375 417.203125 C 162.25 415.582031 159.8125 412.835938 159.101562 411.003906 C 157.574219 407.453125 157.882812 400.542969 162.660156 304.746094 C 164.386719 271.632812 164.792969 254.769531 164.179688 252.535156 C 162.660156 247.148438 158.496094 242.070312 149.753906 234.652344 C 140.410156 226.726562 135.835938 220.324219 132.484375 210.273438 C 130.152344 203.363281 130.152344 202.652344 130.152344 155.71875 L 130.152344 108.078125 L 132.992188 105.640625 C 136.652344 102.492188 140.921875 102.492188 144.777344 105.839844 L 147.824219 108.375 L 148.128906 153.179688 L 148.4375 197.875 L 151.277344 200.3125 C 155.347656 203.769531 160.421875 203.566406 164.28125 199.804688 L 167.230469 196.859375 L 167.230469 109.09375 L 170.175781 106.148438 C 175.253906 101.0625 182.164062 102.789062 184.496094 109.699219 C 185.3125 112.136719 185.410156 124.835938 185.003906 152.976562 C 184.398438 196.453125 184.601562 198.585938 189.574219 201.234375 C 193.84375 203.460938 197.097656 203.058594 200.648438 200.113281 L 203.796875 197.472656 L 203.796875 109.09375 L 206.746094 106.148438 C 211.621094 101.371094 218.53125 102.894531 220.765625 109.296875 C 222.589844 114.679688 221.476562 197.980469 219.546875 206.617188 C 216.699219 218.808594 212.128906 225.410156 198.71875 236.785156 C 192.519531 241.96875 189.066406 245.824219 187.546875 249.078125 L 185.207031 253.753906 L 188.054688 310.234375 C 189.679688 341.421875 191.003906 376.46875 191.003906 388.355469 C 191.101562 412.328125 191.003906 412.734375 183.480469 417.914062 C 178.304688 421.371094 169.867188 421.0625 164.484375 417.203125 Z M 164.484375 417.203125 "/>
<path style=" stroke:none;fill-rule:nonzero;fill:rgb(89.803922%,42.745098%,12.941177%);fill-opacity:1;" d="M 333.980469 417.546875 C 331.335938 415.414062 327.675781 410.328125 327.675781 408.707031 C 327.675781 408.503906 331.945312 406.164062 337.226562 403.523438 C 348.300781 397.9375 354.089844 393.367188 356.730469 387.984375 L 358.667969 384.125 L 358.964844 392.65625 C 359.578125 411.652344 354.398438 420.183594 342.207031 420.183594 C 338.550781 420.183594 336.515625 419.578125 333.980469 417.546875 Z M 333.980469 417.546875 "/>
<path style=" stroke:none;fill-rule:nonzero;fill:rgb(89.803922%,42.745098%,12.941177%);fill-opacity:1;" d="M 314.664062 393.554688 C 313.542969 392.230469 308.058594 381.671875 302.472656 369.882812 C 296.984375 358.203125 290.6875 345.199219 288.65625 341.035156 L 284.898438 333.617188 L 266.003906 353.019531 C 248.832031 370.691406 246.902344 372.421875 243.753906 372.421875 C 239.589844 372.421875 236.546875 369.683594 235.730469 365.105469 C 235.425781 363.28125 235.328125 318.277344 235.425781 265.144531 C 235.730469 171.6875 235.835938 168.332031 237.660156 166.304688 C 238.78125 165.085938 240.808594 164.167969 242.230469 164.167969 C 245.175781 164.167969 252.191406 171.078125 301.761719 223.085938 C 319.636719 241.78125 344.226562 267.277344 356.414062 279.773438 C 376.523438 300.5 378.453125 302.730469 378.453125 305.984375 C 378.453125 310.351562 375.003906 314.113281 370.226562 315.023438 C 368.296875 315.332031 356.511719 315.226562 343.917969 314.71875 C 331.316406 314.210938 320.960938 314.007812 320.757812 314.113281 C 319.941406 314.621094 326.75 329.855469 337.007812 350.382812 C 350.117188 376.890625 350.417969 378.515625 343.613281 385.019531 C 338.734375 389.792969 325.632812 395.789062 320.25 395.789062 C 318.015625 395.789062 316.085938 394.972656 314.664062 393.554688 Z M 314.664062 393.554688 "/>
<path style=" stroke:none;fill-rule:nonzero;fill:rgb(89.803922%,42.745098%,12.941177%);fill-opacity:1;" d="M 346.1875 345.039062 C 341.003906 334.875 337.042969 326.238281 337.347656 325.738281 C 337.75 325.125 341.820312 324.71875 346.390625 324.71875 L 354.816406 324.71875 L 355.429688 330.105469 C 356.746094 340.875 357.464844 363.324219 356.542969 363.324219 C 356.035156 363.324219 351.367188 355.089844 346.1875 345.039062 Z M 346.1875 345.039062 "/>
<path style=" stroke:none;fill-rule:nonzero;fill:rgb(89.803922%,42.745098%,12.941177%);fill-opacity:1;" d="M 328.691406 236.257812 C 316.703125 223.351562 304.820312 209.742188 302.277344 205.980469 C 292.527344 191.761719 288.570312 169.714844 292.632812 151.328125 C 298.121094 126.035156 317.210938 104.902344 336.617188 102.871094 C 353.28125 101.042969 370.644531 112.621094 381.316406 132.535156 C 387.105469 143.609375 389.742188 153.96875 389.847656 167.277344 C 389.945312 180.992188 388.523438 188 383.042969 199.277344 C 379.386719 206.898438 376.84375 210.449219 368.3125 219.492188 C 355.613281 232.902344 352.058594 239.609375 351.140625 251.695312 L 350.535156 259.722656 Z M 328.691406 236.257812 "/>
</g>
</svg>
