<?xml version="1.0" encoding="utf-8"?>
<svg xmlns="http://www.w3.org/2000/svg" viewBox="0 0 500 500" xmlns:bx="https://boxy-svg.com" width="500px" height="500px"><defs><bx:export><bx:file format="svg" path="Sans titre.svg"/></bx:export></defs><g id="surface1" transform="matrix(0.686898, 0, 0, 0.686898, 19.952486, 123.162233)"><path style="stroke: none; fill-rule: nonzero; fill: rgb(230, 111, 34); fill-opacity: 1;" d="M 296.437 535.915 C 225.641 527.748 148.126 488.338 96.532 434.169 C 37.214 371.835 4.679 296.893 -3.198 204.317 C -5.785 173.797 -2.915 134.239 4.11 101.137 C 18.152 35.931 50.822 -23.964 98.544 -71.682 C 118.6 -91.744 132.218 -102.78 153.423 -116.41 C 204.005 -149.07 258.321 -166.12 319.359 -168.56 C 369.086 -170.42 412.791 -162.54 463.237 -142.33 C 504.22 -125.99 537.608 -103.08 571.567 -67.816 C 621.717 -15.938 653.1 46.968 665.283 120.482 C 675.453 181.381 669.725 247.451 649.376 304.627 C 642.785 322.971 624.3 361.233 614.121 377.277 C 557.525 466.415 471.834 522.158 370.521 535.345 C 352.325 537.633 314.486 537.927 296.437 535.915 Z M 358.2 490.056 C 434.289 482.325 501.783 446.638 550.214 388.608 C 575.721 358.078 597.929 318.668 609.681 282.843 C 639.776 191.563 626.591 83.507 576.155 9.285 C 528.715 -60.791 469.536 -101.06 388.149 -118.97 C 368.369 -123.27 316.785 -124.42 293.566 -121.12 C 174.055 -103.65 80.2 -17.656 49.386 102.57 C 41.223 134.524 37.93 178.237 41.223 211.48 C 49.386 292.306 87.078 367.963 144.254 417.975 C 170.185 440.762 216.189 466.988 249.145 477.882 C 282.963 489.056 323.801 493.644 358.2 490.056 Z M 358.2 490.056"/><path style="stroke: none; fill-rule: nonzero; fill: rgb(230, 111, 34); fill-opacity: 1;" d="M 203.721 411.53 C 200.565 409.239 197.126 405.369 196.124 402.785 C 193.972 397.774 194.406 388.029 201.145 252.893 C 203.581 206.183 204.153 182.394 203.287 179.24 C 201.145 171.647 195.269 164.483 182.939 154.017 C 169.761 142.836 163.307 133.806 158.581 119.627 C 155.289 109.88 155.289 108.879 155.289 42.674 L 155.289 -24.534 L 159.298 -27.974 C 164.455 -32.417 170.48 -32.417 175.923 -27.689 L 180.217 -24.111 L 180.649 39.086 L 181.081 102.137 L 185.09 105.576 C 190.828 110.451 197.991 110.167 203.436 104.861 L 207.592 100.703 L 207.592 -23.102 L 211.748 -27.256 C 218.911 -34.428 228.658 -31.992 231.949 -22.244 C 233.098 -18.807 233.237 -0.894 232.668 38.801 C 231.813 100.133 232.098 103.14 239.112 106.874 C 245.135 110.018 249.723 109.448 254.735 105.293 L 259.177 101.568 L 259.177 -23.102 L 263.333 -27.256 C 270.211 -33.997 279.959 -31.847 283.112 -22.817 C 285.686 -15.22 284.113 102.286 281.392 114.47 C 277.374 131.664 270.928 140.977 252.014 157.024 C 243.27 164.335 238.394 169.779 236.251 174.366 L 232.953 180.961 L 236.97 260.636 C 239.261 304.627 241.127 354.069 241.127 370.832 C 241.264 404.652 241.127 405.222 230.515 412.532 C 223.214 417.407 211.316 416.973 203.721 411.53 Z M 203.721 411.53"/><path style="stroke: none; fill-rule: nonzero; fill: rgb(230, 111, 34); fill-opacity: 1;" d="M 442.888 411.964 C 439.156 408.954 433.995 401.782 433.995 399.494 C 433.995 399.209 440.02 395.907 447.467 392.182 C 463.091 384.304 471.254 377.856 474.978 370.263 L 477.712 364.818 L 478.133 376.854 C 478.998 403.65 471.687 415.687 454.492 415.687 C 449.335 415.687 446.465 414.831 442.888 411.964 Z M 442.888 411.964"/><path style="stroke: none; fill-rule: nonzero; fill: rgb(230, 111, 34); fill-opacity: 1;" d="M 415.66 378.141 C 414.08 376.275 406.346 361.378 398.464 344.755 C 390.723 328.277 381.841 309.933 378.971 304.057 L 373.676 293.592 L 347.019 320.966 C 322.799 345.893 320.078 348.331 315.636 348.331 C 309.76 348.331 305.466 344.47 304.315 338.013 C 303.884 335.44 303.745 271.956 303.884 197.005 C 304.315 65.173 304.464 60.44 307.038 57.579 C 308.618 55.858 311.478 54.561 313.484 54.561 C 317.641 54.561 327.535 64.308 397.465 137.678 C 422.678 164.05 457.362 200.012 474.557 217.64 C 502.922 246.882 505.646 250.025 505.646 254.614 C 505.646 260.774 500.781 266.081 494.041 267.368 C 491.319 267.799 474.693 267.653 456.928 266.935 C 439.156 266.217 424.544 265.932 424.257 266.081 C 423.109 266.799 432.709 288.285 447.183 317.242 C 465.673 354.639 466.097 356.93 456.498 366.105 C 449.62 372.836 431.136 381.295 423.542 381.295 C 420.388 381.295 417.666 380.147 415.66 378.141 Z M 415.66 378.141"/><path style="stroke: none; fill-rule: nonzero; fill: rgb(230, 111, 34); fill-opacity: 1;" d="M 460.082 309.648 C 452.773 295.313 447.183 283.128 447.614 282.419 C 448.186 281.556 453.922 280.986 460.367 280.986 L 472.257 280.986 L 473.121 288.579 C 474.978 303.772 475.991 335.44 474.693 335.44 C 473.978 335.44 467.394 323.826 460.082 309.648 Z M 460.082 309.648"/><path style="stroke: none; fill-rule: nonzero; fill: rgb(230, 111, 34); fill-opacity: 1;" d="M 435.431 156.168 C 418.521 137.963 401.758 118.764 398.17 113.458 C 384.417 93.402 378.835 62.302 384.562 36.365 C 392.305 0.688 419.238 -29.122 446.613 -31.992 C 470.116 -34.567 494.611 -18.235 509.665 9.854 C 517.828 25.478 521.554 40.09 521.701 58.867 C 521.839 78.212 519.833 88.098 512.1 104.004 C 506.941 114.755 503.356 119.766 491.319 132.521 C 473.406 151.435 468.395 160.895 467.1 177.942 L 466.243 189.272 L 435.431 156.168 Z M 435.431 156.168"/></g></svg>