<?xml version="1.0" encoding="UTF-8"?>
<svg xmlns="http://www.w3.org/2000/svg" xmlns:xlink="http://www.w3.org/1999/xlink" width="728px" height="300px" viewBox="0 0 728 300" version="1.1">
<g id="surface1">
<path style=" stroke:none;fill-rule:nonzero;fill:rgb(90.196079%,43.529412%,13.333334%);fill-opacity:1;" d="M 127.71875 299.390625 C 97.644531 295.921875 64.714844 279.179688 42.796875 256.167969 C 17.597656 229.6875 3.777344 197.851562 0.429688 158.523438 C -0.667969 145.558594 0.550781 128.753906 3.535156 114.691406 C 9.5 86.992188 23.378906 61.546875 43.652344 41.273438 C 52.171875 32.753906 57.957031 28.066406 66.964844 22.28125 C 88.453125 8.402344 111.527344 1.15625 137.457031 0.121094 C 158.582031 -0.667969 177.148438 2.679688 198.578125 11.261719 C 215.988281 18.203125 230.171875 27.941406 244.597656 42.917969 C 265.902344 64.957031 279.234375 91.679688 284.410156 122.910156 C 288.730469 148.78125 286.296875 176.847656 277.652344 201.136719 C 274.851562 208.929688 267 225.183594 262.675781 232 C 238.632812 269.867188 202.230469 293.546875 159.191406 299.148438 C 151.460938 300.121094 135.386719 300.246094 127.71875 299.390625 Z M 153.957031 279.910156 C 186.28125 276.625 214.953125 261.464844 235.527344 236.8125 C 246.363281 223.84375 255.796875 207.101562 260.789062 191.882812 C 273.574219 153.105469 267.972656 107.203125 246.546875 75.671875 C 226.394531 45.902344 201.253906 28.796875 166.679688 21.1875 C 158.277344 19.359375 136.363281 18.871094 126.5 20.273438 C 75.730469 27.699219 35.859375 64.226562 22.769531 115.300781 C 19.300781 128.875 17.902344 147.445312 19.300781 161.566406 C 22.769531 195.902344 38.78125 228.042969 63.070312 249.289062 C 74.085938 258.96875 93.628906 270.109375 107.628906 274.738281 C 121.996094 279.484375 139.34375 281.433594 153.957031 279.910156 Z M 153.957031 279.910156 "/>
<path style=" stroke:none;fill-rule:nonzero;fill:rgb(90.196079%,43.529412%,13.333334%);fill-opacity:1;" d="M 88.332031 246.550781 C 86.992188 245.578125 85.53125 243.933594 85.105469 242.835938 C 84.191406 240.707031 84.375 236.566406 87.238281 179.160156 C 88.273438 159.316406 88.515625 149.210938 88.148438 147.871094 C 87.238281 144.644531 84.742188 141.601562 79.503906 137.15625 C 73.90625 132.40625 71.164062 128.570312 69.15625 122.546875 C 67.757812 118.40625 67.757812 117.980469 67.757812 89.855469 L 67.757812 61.304688 L 69.460938 59.84375 C 71.652344 57.957031 74.210938 57.957031 76.523438 59.964844 L 78.347656 61.484375 L 78.53125 88.332031 L 78.714844 115.117188 L 80.417969 116.578125 C 82.855469 118.648438 85.898438 118.527344 88.210938 116.273438 L 89.976562 114.507812 L 89.976562 61.914062 L 91.742188 60.148438 C 94.785156 57.101562 98.925781 58.136719 100.324219 62.277344 C 100.8125 63.738281 100.871094 71.347656 100.628906 88.210938 C 100.265625 114.265625 100.386719 115.542969 103.367188 117.128906 C 105.925781 118.464844 107.875 118.222656 110.003906 116.457031 L 111.890625 114.875 L 111.890625 61.914062 L 113.65625 60.148438 C 116.578125 57.285156 120.71875 58.199219 122.058594 62.035156 C 123.152344 65.261719 122.484375 115.179688 121.328125 120.355469 C 119.621094 127.660156 116.882812 131.617188 108.847656 138.433594 C 105.132812 141.539062 103.0625 143.851562 102.152344 145.800781 L 100.75 148.601562 L 102.457031 182.449219 C 103.429688 201.136719 104.222656 222.140625 104.222656 229.261719 C 104.28125 243.628906 104.222656 243.871094 99.714844 246.976562 C 96.613281 249.046875 91.558594 248.863281 88.332031 246.550781 Z M 88.332031 246.550781 "/>
<path style=" stroke:none;fill-rule:nonzero;fill:rgb(90.196079%,43.529412%,13.333334%);fill-opacity:1;" d="M 189.933594 246.734375 C 188.347656 245.457031 186.15625 242.410156 186.15625 241.4375 C 186.15625 241.316406 188.714844 239.914062 191.878906 238.332031 C 198.515625 234.984375 201.984375 232.246094 203.566406 229.019531 L 204.726562 226.707031 L 204.90625 231.820312 C 205.273438 243.203125 202.167969 248.316406 194.863281 248.316406 C 192.671875 248.316406 191.453125 247.953125 189.933594 246.734375 Z M 189.933594 246.734375 "/>
<path style=" stroke:none;fill-rule:nonzero;fill:rgb(90.196079%,43.529412%,13.333334%);fill-opacity:1;" d="M 178.367188 232.367188 C 177.695312 231.574219 174.410156 225.246094 171.0625 218.183594 C 167.773438 211.183594 164 203.390625 162.78125 200.894531 L 160.53125 196.449219 L 149.207031 208.078125 C 138.917969 218.667969 137.761719 219.703125 135.875 219.703125 C 133.378906 219.703125 131.554688 218.0625 131.066406 215.320312 C 130.882812 214.226562 130.824219 187.257812 130.882812 155.417969 C 131.066406 99.414062 131.128906 97.402344 132.222656 96.1875 C 132.894531 95.457031 134.109375 94.90625 134.960938 94.90625 C 136.726562 94.90625 140.929688 99.046875 170.636719 130.214844 C 181.347656 141.417969 196.082031 156.695312 203.386719 164.183594 C 215.4375 176.605469 216.59375 177.941406 216.59375 179.890625 C 216.59375 182.507812 214.527344 184.761719 211.664062 185.308594 C 210.507812 185.492188 203.445312 185.429688 195.898438 185.125 C 188.347656 184.820312 182.140625 184.699219 182.019531 184.761719 C 181.53125 185.066406 185.609375 194.195312 191.757812 206.496094 C 199.613281 222.382812 199.792969 223.355469 195.714844 227.253906 C 192.792969 230.113281 184.941406 233.707031 181.714844 233.707031 C 180.375 233.707031 179.21875 233.21875 178.367188 232.367188 Z M 178.367188 232.367188 "/>
<path style=" stroke:none;fill-rule:nonzero;fill:rgb(90.196079%,43.529412%,13.333334%);fill-opacity:1;" d="M 197.238281 203.269531 C 194.132812 197.179688 191.757812 192.003906 191.941406 191.703125 C 192.183594 191.335938 194.621094 191.09375 197.359375 191.09375 L 202.410156 191.09375 L 202.777344 194.320312 C 203.566406 200.773438 203.996094 214.226562 203.445312 214.226562 C 203.140625 214.226562 200.34375 209.292969 197.238281 203.269531 Z M 197.238281 203.269531 "/>
<path style=" stroke:none;fill-rule:nonzero;fill:rgb(90.196079%,43.529412%,13.333334%);fill-opacity:1;" d="M 186.765625 138.070312 C 179.582031 130.335938 172.460938 122.179688 170.9375 119.925781 C 165.09375 111.40625 162.722656 98.195312 165.15625 87.175781 C 168.445312 72.019531 179.886719 59.355469 191.515625 58.136719 C 201.5 57.042969 211.90625 63.980469 218.300781 75.914062 C 221.769531 82.550781 223.351562 88.757812 223.414062 96.734375 C 223.472656 104.953125 222.621094 109.152344 219.335938 115.910156 C 217.144531 120.476562 215.621094 122.605469 210.507812 128.023438 C 202.898438 136.058594 200.769531 140.078125 200.21875 147.320312 L 199.855469 152.132812 Z M 186.765625 138.070312 "/>
<path style=" stroke:none;fill-rule:nonzero;fill:rgb(90.196079%,43.529412%,13.333334%);fill-opacity:1;" d="M 368.355469 246.1875 C 360.136719 243.933594 352.46875 238.148438 349.300781 231.695312 C 344.371094 221.589844 344.859375 210.269531 350.582031 201.378906 C 352.894531 197.726562 355.753906 195.230469 359.832031 193.164062 C 361.597656 192.25 363.058594 191.457031 363.179688 191.398438 C 363.304688 191.335938 361.84375 189.023438 360.015625 186.28125 C 356.121094 180.4375 355.085938 176.847656 355.570312 170.757812 C 356.300781 160.898438 362.9375 152.738281 373.042969 149.332031 C 378.15625 147.566406 389.175781 147.75 393.863281 149.636719 C 403.722656 153.53125 409.507812 160.957031 410.542969 171.246094 C 411.152344 177.03125 410.96875 177.089844 402.019531 177.089844 C 393.863281 177.089844 393.132812 176.785156 393.132812 173.742188 C 393.070312 171.367188 391.246094 167.410156 389.296875 165.585938 C 388.199219 164.609375 386.738281 164.0625 384.671875 163.820312 C 375.90625 163.027344 371.582031 169.664062 375.964844 177.210938 C 376.878906 178.796875 383.636719 186.832031 390.941406 195.109375 C 400.800781 206.128906 404.394531 209.84375 404.757812 209.171875 C 405.367188 208.199219 407.132812 198.335938 407.132812 196.265625 C 407.132812 193.710938 408.410156 193.34375 417.054688 193.464844 C 421.5 193.527344 425.335938 193.832031 425.640625 194.136719 C 427.101562 195.597656 422.289062 212.886719 418.457031 220.128906 L 416.324219 224.085938 L 424.238281 233.15625 C 428.5625 238.148438 432.089844 242.777344 432.089844 243.386719 C 432.089844 245.757812 430.507812 246.1875 421.378906 246.1875 L 412.671875 246.1875 L 408.53125 242.167969 L 404.394531 238.089844 L 401.957031 239.914062 C 398.246094 242.65625 392.949219 245.210938 388.75 246.1875 C 383.878906 247.34375 372.617188 247.28125 368.355469 246.1875 Z M 387.347656 229.140625 C 390.820312 227.496094 393.316406 225.488281 393.011719 224.636719 C 392.949219 224.332031 388.75 219.398438 383.695312 213.675781 C 373.589844 202.171875 373.773438 202.234375 369.511719 205.519531 C 361.964844 211.242188 363.609375 223.660156 372.554688 228.773438 C 376.878906 231.269531 382.722656 231.394531 387.347656 229.140625 Z M 387.347656 229.140625 "/>
<path style=" stroke:none;fill-rule:nonzero;fill:rgb(90.196079%,43.529412%,13.333334%);fill-opacity:1;" d="M 472.632812 245.578125 C 472.148438 245.027344 471.539062 243.75 471.417969 242.65625 C 471.234375 241.558594 471.171875 220.496094 471.234375 195.78125 C 471.355469 152.070312 471.417969 150.792969 472.511719 149.941406 C 473.546875 149.210938 478.78125 149.085938 503.621094 149.085938 C 533.265625 149.085938 533.570312 149.085938 534.726562 150.367188 C 535.699219 151.460938 535.882812 152.800781 536.066406 159.375 C 536.25 165.402344 536.066406 167.289062 535.335938 168.265625 C 534.484375 169.421875 533.753906 169.480469 514.636719 169.480469 C 501.550781 169.480469 494.609375 169.726562 494.183594 170.152344 C 493.757812 170.578125 493.574219 173.925781 493.695312 179.28125 L 493.878906 187.746094 L 511.835938 187.867188 C 533.691406 188.046875 531.925781 187.195312 531.925781 197.789062 C 531.925781 208.382812 533.691406 207.527344 511.835938 207.710938 L 493.878906 207.832031 L 493.695312 216.296875 C 493.574219 221.957031 493.757812 225 494.246094 225.546875 C 494.792969 226.21875 498.566406 226.402344 514.636719 226.402344 C 531.683594 226.402344 534.421875 226.523438 535.214844 227.375 C 536.003906 228.105469 536.1875 229.871094 536.1875 236.203125 C 536.1875 243.265625 536.066406 244.175781 534.96875 245.273438 C 533.8125 246.429688 532.960938 246.488281 503.679688 246.488281 C 477.441406 246.488281 473.425781 246.367188 472.632812 245.578125 Z M 472.632812 245.578125 "/>
<path style=" stroke:none;fill-rule:nonzero;fill:rgb(90.196079%,43.529412%,13.333334%);fill-opacity:1;" d="M 549.824219 245.941406 C 549.09375 245.636719 548.363281 244.96875 548.179688 244.421875 C 547.9375 243.871094 548.847656 240.523438 550.1875 236.871094 C 551.46875 233.28125 554.085938 225.976562 555.972656 220.617188 C 557.859375 215.261719 560.171875 208.6875 561.144531 206.007812 C 562.058594 203.328125 566.746094 190.058594 571.433594 176.480469 C 578.128906 157.367188 580.382812 151.523438 581.601562 150.488281 C 583.0625 149.148438 583.609375 149.085938 593.714844 149.085938 C 603.820312 149.085938 604.367188 149.148438 605.828125 150.488281 C 607.046875 151.523438 609.96875 159.316406 619.644531 187.136719 C 637.300781 237.96875 638.457031 241.5 638.457031 243.445312 C 638.457031 246.246094 636.996094 246.613281 627.132812 246.367188 C 619.890625 246.246094 618.246094 246.003906 617.394531 245.152344 C 616.785156 244.601562 615.203125 240.769531 613.863281 236.628906 L 611.367188 229.140625 L 575.453125 229.140625 L 572.957031 236.628906 C 571.554688 240.769531 569.972656 244.601562 569.425781 245.152344 C 568.574219 246.003906 566.867188 246.1875 559.746094 246.308594 C 554.996094 246.429688 550.554688 246.246094 549.824219 245.941406 Z M 604.367188 208.746094 C 604.304688 206.921875 594.140625 174.960938 593.652344 175.144531 C 592.984375 175.324219 582.390625 208.199219 582.695312 209.050781 C 582.816406 209.417969 587.019531 209.660156 593.652344 209.660156 C 602.785156 209.660156 604.367188 209.539062 604.367188 208.746094 Z M 604.367188 208.746094 "/>
<path style=" stroke:none;fill-rule:nonzero;fill:rgb(90.196079%,43.529412%,13.333334%);fill-opacity:1;" d="M 660.796875 245.394531 C 659.882812 244.359375 659.761719 240.828125 659.761719 207.347656 C 659.761719 184.882812 659.519531 170.332031 659.214844 170.089844 C 658.851562 169.90625 653.25 169.785156 646.675781 169.785156 C 631.210938 169.785156 631.882812 170.273438 632.066406 159.253906 C 632.125 152.738281 632.308594 151.402344 633.28125 150.304688 C 634.378906 149.085938 634.988281 149.085938 670.71875 149.085938 C 705.175781 149.085938 707.125 149.148438 708.035156 150.183594 C 708.890625 151.097656 709.070312 152.738281 709.070312 159.316406 C 709.070312 170.394531 709.921875 169.726562 695.070312 169.664062 C 686.609375 169.664062 683.261719 169.847656 682.589844 170.394531 C 681.800781 171.0625 681.617188 173.195312 681.679688 183.421875 C 681.859375 233.402344 681.679688 244.542969 680.703125 245.515625 C 679.914062 246.308594 678.148438 246.488281 670.78125 246.488281 C 662.804688 246.488281 661.648438 246.367188 660.796875 245.394531 Z M 660.796875 245.394531 "/>
<path style=" stroke:none;fill-rule:nonzero;fill:rgb(90.196079%,43.529412%,13.333334%);fill-opacity:1;" d="M 366.835938 129.605469 C 351.492188 127.414062 337.003906 116.03125 331.585938 101.664062 C 328.117188 92.59375 327.082031 80.113281 328.910156 69.644531 C 331.585938 54.300781 340.71875 41.578125 353.257812 35.550781 C 360.808594 31.898438 365.191406 30.988281 374.382812 30.988281 C 379.921875 30.988281 383.210938 31.292969 386.679688 32.203125 C 397.636719 35.003906 406.707031 42.1875 411.332031 51.808594 C 414.074219 57.46875 415.167969 62.460938 413.769531 62.886719 C 413.28125 63.007812 408.59375 63.3125 403.296875 63.433594 L 393.742188 63.738281 L 391.671875 60.574219 C 387.289062 53.695312 382.175781 51.078125 373.410156 51.078125 C 369.453125 51.078125 367.808594 51.378906 365.25 52.597656 C 361.71875 54.242188 356.121094 59.417969 354.539062 62.582031 C 352.527344 66.417969 351.128906 73.539062 351.128906 79.933594 C 351.128906 90.464844 353.808594 98.132812 359.347656 103.796875 C 363.609375 108.058594 367.625 109.519531 375.050781 109.519531 C 383.574219 109.457031 388.566406 107.082031 391.550781 101.664062 C 392.402344 100.019531 393.496094 98.378906 393.984375 98.011719 C 395.324219 96.855469 414.4375 97.828125 414.863281 99.046875 C 415.046875 99.535156 414.742188 101.480469 414.195312 103.371094 C 411.273438 112.746094 404.148438 121.085938 395.445312 125.285156 C 392.644531 126.625 388.628906 128.144531 386.4375 128.632812 C 381.320312 129.851562 372.007812 130.277344 366.835938 129.605469 Z M 366.835938 129.605469 "/>
<path style=" stroke:none;fill-rule:nonzero;fill:rgb(90.196079%,43.529412%,13.333334%);fill-opacity:1;" d="M 582.148438 129.363281 C 562.789062 126.078125 549.273438 113.109375 544.953125 93.566406 C 543.429688 86.6875 543.554688 73.539062 545.257812 66.601562 C 549.578125 48.703125 561.449219 36.28125 578.128906 32.144531 C 582.574219 31.046875 584.523438 30.863281 592.132812 31.109375 C 600.042969 31.414062 601.566406 31.65625 606.011719 33.238281 C 613.011719 35.796875 617.273438 38.535156 621.960938 43.527344 C 626.039062 47.910156 629.265625 53.511719 630.605469 58.503906 C 631.820312 62.945312 631.457031 63.25 625.1875 63.25 C 622.203125 63.25 617.699219 63.433594 615.203125 63.617188 C 610.148438 64.042969 610.515625 64.285156 607.226562 59.292969 C 604.914062 55.824219 600.59375 52.660156 596.878906 51.625 C 592.863281 50.527344 586.226562 50.832031 582.390625 52.234375 C 578.191406 53.816406 572.894531 58.441406 570.703125 62.460938 C 565.773438 71.589844 565.652344 87.054688 570.398438 97.160156 C 572.101562 100.8125 576.667969 105.378906 580.6875 107.507812 C 583.792969 109.089844 584.398438 109.214844 591.277344 109.214844 C 598.339844 109.214844 598.707031 109.152344 601.933594 107.328125 C 604.125 106.046875 605.890625 104.464844 607.226562 102.457031 C 608.324219 100.8125 609.542969 98.984375 609.96875 98.378906 C 610.699219 97.34375 611.488281 97.34375 620.804688 97.769531 L 630.847656 98.253906 L 631.03125 99.898438 C 631.273438 102.210938 628.167969 109.335938 624.820312 114.023438 C 619.828125 121.023438 611.488281 126.503906 602.539062 128.695312 C 596.878906 130.03125 587.929688 130.335938 582.148438 129.363281 Z M 582.148438 129.363281 "/>
<path style=" stroke:none;fill-rule:nonzero;fill:rgb(90.196079%,43.529412%,13.333334%);fill-opacity:1;" d="M 429.167969 127.660156 C 428.136719 126.625 428.136719 33.96875 429.167969 32.933594 C 430.265625 31.839844 448.769531 31.898438 449.683594 32.996094 C 450.171875 33.605469 450.414062 44.746094 450.476562 70.921875 L 450.660156 107.996094 L 470.992188 108.179688 C 484.75 108.238281 491.628906 108.542969 492.175781 108.96875 C 492.785156 109.519531 492.964844 111.769531 492.964844 118.039062 C 492.964844 125.34375 492.84375 126.503906 491.871094 127.355469 C 490.835938 128.269531 487.792969 128.390625 460.335938 128.390625 C 437.449219 128.390625 429.71875 128.207031 429.167969 127.660156 Z M 429.167969 127.660156 "/>
<path style=" stroke:none;fill-rule:nonzero;fill:rgb(90.196079%,43.529412%,13.333334%);fill-opacity:1;" d="M 507.332031 127.050781 C 506.480469 125.832031 506.359375 120.355469 506.359375 79.933594 C 506.359375 36.40625 506.417969 34.152344 507.453125 33.238281 C 508.429688 32.386719 510.070312 32.203125 518.109375 32.203125 C 527.238281 32.203125 527.605469 32.265625 528.515625 33.542969 C 529.371094 34.761719 529.492188 40.238281 529.492188 80.417969 C 529.492188 125.164062 529.492188 125.953125 528.273438 127.171875 C 527.179688 128.269531 526.265625 128.390625 517.679688 128.390625 C 508.609375 128.390625 508.246094 128.328125 507.332031 127.050781 Z M 507.332031 127.050781 "/>
<path style=" stroke:none;fill-rule:nonzero;fill:rgb(90.196079%,43.529412%,13.333334%);fill-opacity:1;" d="M 646.734375 127.050781 C 645.882812 125.832031 645.761719 120.355469 645.761719 79.871094 C 645.761719 39.082031 645.882812 34.03125 646.734375 33.179688 C 648.015625 31.839844 666.519531 31.71875 667.617188 32.996094 C 668.042969 33.542969 668.347656 39.9375 668.40625 52.414062 L 668.589844 71.042969 L 673.703125 64.957031 C 676.503906 61.609375 683.320312 53.269531 688.859375 46.390625 C 694.339844 39.570312 699.515625 33.542969 700.246094 33.058594 C 702.253906 31.777344 724.472656 32.082031 724.777344 33.421875 C 724.835938 33.910156 722.28125 37.5 719.054688 41.335938 C 703.714844 59.539062 694.460938 71.226562 694.828125 71.957031 C 695.558594 73.234375 709.496094 95.820312 718.203125 109.820312 C 726.421875 122.972656 727.941406 125.589844 727.941406 126.199219 C 727.941406 126.320312 727.515625 126.929688 726.96875 127.414062 C 725.570312 128.816406 704.503906 128.875 702.558594 127.476562 C 701.828125 126.929688 698.539062 122.058594 695.253906 116.640625 C 692.027344 111.222656 686.972656 102.882812 684.050781 98.132812 L 678.816406 89.429688 L 673.519531 95.757812 L 668.285156 102.089844 L 668.285156 114.632812 C 668.285156 126.378906 668.222656 127.171875 667.128906 127.78125 C 666.460938 128.085938 661.953125 128.390625 656.78125 128.390625 C 648.015625 128.390625 647.589844 128.328125 646.734375 127.050781 Z M 646.734375 127.050781 "/>
</g>
</svg>
